STARTFONT 2.1
FONT -FontForge-SNES-Book-I-Normal--24-240-75-75-P-72-ISO10646-1
SIZE 24 75 75
FONTBOUNDINGBOX 17 19 0 -2
COMMENT "Generated by fontforge, http://fontforge.sourceforge.net"
COMMENT "Made by 629Fonts. 2017. All Rights Reserved"
STARTPROPERTIES 39
FOUNDRY "FontForge"
FAMILY_NAME "SNES"
WEIGHT_NAME "Book"
SLANT "I"
SETWIDTH_NAME "Normal"
ADD_STYLE_NAME ""
PIXEL_SIZE 24
POINT_SIZE 240
RESOLUTION_X 75
RESOLUTION_Y 75
SPACING "P"
AVERAGE_WIDTH 72
CHARSET_REGISTRY "ISO10646"
CHARSET_ENCODING "1"
FONTNAME_REGISTRY ""
CHARSET_COLLECTIONS "ISO10646-1"
FONT_NAME "SNES-Italic"
FACE_NAME "SNES Italic"
COPYRIGHT "Made by 629Fonts. 2017. All Rights Reserved"
FONT_VERSION "1.00;September 10, 2020;FontCreator 11.5.0.2430 64-bit"
FONT_ASCENT 19
FONT_DESCENT 5
UNDERLINE_POSITION -3
UNDERLINE_THICKNESS 2
X_HEIGHT 16
CAP_HEIGHT 16
RAW_ASCENT 799
RAW_DESCENT 200
ITALIC_ANGLE 5100
NORM_SPACE 4
RELATIVE_WEIGHT 40
RELATIVE_SETWIDTH 50
SUPERSCRIPT_X 0
SUPERSCRIPT_Y 11
SUPERSCRIPT_SIZE 15
SUBSCRIPT_X 0
SUBSCRIPT_Y 3
SUBSCRIPT_SIZE 15
AVG_UPPERCASE_WIDTH 77
ENDPROPERTIES
CHARS 72
STARTCHAR space
ENCODING 32
SWIDTH 146 0
DWIDTH 4 0
BBX 1 1 0 0
BITMAP
00
ENDCHAR
STARTCHAR exclam
ENCODING 33
SWIDTH 143 0
DWIDTH 3 0
BBX 5 17 1 0
BITMAP
18
18
18
30
30
30
30
30
60
60
60
60
60
00
00
C0
C0
ENDCHAR
STARTCHAR quotesingle
ENCODING 39
SWIDTH 143 0
DWIDTH 3 0
BBX 3 4 3 13
BITMAP
60
E0
E0
C0
ENDCHAR
STARTCHAR comma
ENCODING 44
SWIDTH 143 0
DWIDTH 3 0
BBX 3 4 0 -2
BITMAP
60
40
C0
80
ENDCHAR
STARTCHAR period
ENCODING 46
SWIDTH 143 0
DWIDTH 3 0
BBX 2 2 1 0
BITMAP
C0
C0
ENDCHAR
STARTCHAR zero
ENCODING 48
SWIDTH 314 0
DWIDTH 8 0
BBX 9 17 1 0
BITMAP
1F80
1F80
3180
3180
3100
3300
3300
6300
6300
6300
6600
6600
C600
C600
C600
FC00
FC00
ENDCHAR
STARTCHAR one
ENCODING 49
SWIDTH 208 0
DWIDTH 5 0
BBX 5 17 2 0
BITMAP
38
78
18
30
30
30
30
30
30
60
60
60
60
60
C0
C0
C0
ENDCHAR
STARTCHAR two
ENCODING 50
SWIDTH 312 0
DWIDTH 8 0
BBX 9 17 1 0
BITMAP
0F80
1F80
1980
1980
1980
3300
0300
0600
0C00
1800
3000
7000
6000
6000
E000
FE00
FE00
ENDCHAR
STARTCHAR three
ENCODING 51
SWIDTH 317 0
DWIDTH 8 0
BBX 9 17 1 0
BITMAP
1F80
1F80
1980
1980
3180
3300
0300
0300
1F00
1E00
0600
6600
C600
CC00
CC00
FC00
FC00
ENDCHAR
STARTCHAR four
ENCODING 52
SWIDTH 317 0
DWIDTH 8 0
BBX 8 17 2 0
BITMAP
33
63
67
66
66
66
E6
FE
FC
0C
0C
0C
0C
1C
18
18
18
ENDCHAR
STARTCHAR five
ENCODING 53
SWIDTH 317 0
DWIDTH 8 0
BBX 9 17 1 0
BITMAP
3F80
3F80
3000
3000
3000
2000
6000
7E00
7E00
0600
0600
6600
CC00
CC00
CC00
FC00
F800
ENDCHAR
STARTCHAR six
ENCODING 54
SWIDTH 314 0
DWIDTH 8 0
BBX 9 17 1 0
BITMAP
1F80
1F80
3980
3980
3180
3300
3000
7E00
7E00
6600
6600
4600
CC00
CC00
CC00
FC00
F800
ENDCHAR
STARTCHAR seven
ENCODING 55
SWIDTH 292 0
DWIDTH 7 0
BBX 8 17 1 0
BITMAP
3F
3F
06
06
06
0C
0C
0C
18
18
30
30
30
60
60
60
C0
ENDCHAR
STARTCHAR eight
ENCODING 56
SWIDTH 314 0
DWIDTH 8 0
BBX 9 17 1 0
BITMAP
1F80
1F80
1980
1980
3180
3300
3300
3300
3F00
7E00
6600
6600
4600
CC00
CC00
FC00
FC00
ENDCHAR
STARTCHAR nine
ENCODING 57
SWIDTH 314 0
DWIDTH 8 0
BBX 9 17 1 0
BITMAP
1F80
3F80
3180
3180
3180
2300
6300
6300
7F00
3F00
0600
6600
C600
CE00
CE00
FC00
FC00
ENDCHAR
STARTCHAR question
ENCODING 63
SWIDTH 312 0
DWIDTH 8 0
BBX 8 17 2 0
BITMAP
1F
3F
33
33
63
66
06
0C
0C
18
30
30
60
00
00
C0
C0
ENDCHAR
STARTCHAR A
ENCODING 65
SWIDTH 317 0
DWIDTH 8 0
BBX 8 17 0 0
BITMAP
03
07
07
07
0F
0F
0B
1B
1B
1B
33
33
3F
7F
63
67
C6
ENDCHAR
STARTCHAR B
ENCODING 66
SWIDTH 317 0
DWIDTH 8 0
BBX 9 17 1 0
BITMAP
1F80
1F80
1980
3980
3180
3300
3300
3300
3F00
7F00
7300
7300
6300
6600
E600
FE00
FC00
ENDCHAR
STARTCHAR C
ENCODING 67
SWIDTH 314 0
DWIDTH 8 0
BBX 9 17 1 0
BITMAP
1F80
1F80
3180
3180
3180
3300
3000
6000
6000
6000
6000
6600
C600
CC00
CC00
FC00
F800
ENDCHAR
STARTCHAR D
ENCODING 68
SWIDTH 335 0
DWIDTH 8 0
BBX 9 17 1 0
BITMAP
1F80
1F80
3980
3180
3180
3300
3300
3300
7300
6300
6200
6600
6600
6600
C600
FE00
FC00
ENDCHAR
STARTCHAR E
ENCODING 69
SWIDTH 248 0
DWIDTH 6 0
BBX 8 17 1 0
BITMAP
1F
1F
18
18
38
30
30
3E
3C
70
60
60
60
60
E0
F8
F8
ENDCHAR
STARTCHAR F
ENCODING 70
SWIDTH 248 0
DWIDTH 6 0
BBX 8 17 1 0
BITMAP
1F
1F
18
18
38
30
30
3E
3C
70
60
60
60
60
E0
C0
C0
ENDCHAR
STARTCHAR G
ENCODING 71
SWIDTH 314 0
DWIDTH 8 0
BBX 9 17 1 0
BITMAP
1F80
1F80
3180
3180
3180
3300
3000
6F00
6E00
6600
6600
6600
C600
CC00
CC00
FC00
F800
ENDCHAR
STARTCHAR H
ENCODING 72
SWIDTH 317 0
DWIDTH 8 0
BBX 9 17 1 0
BITMAP
1980
1980
1180
3300
3300
3300
3300
3F00
7F00
6600
6600
6600
6600
6600
CC00
CC00
CC00
ENDCHAR
STARTCHAR I
ENCODING 73
SWIDTH 143 0
DWIDTH 3 0
BBX 5 17 1 0
BITMAP
18
18
18
30
30
30
30
30
70
60
60
60
60
60
C0
C0
C0
ENDCHAR
STARTCHAR J
ENCODING 74
SWIDTH 314 0
DWIDTH 8 0
BBX 9 17 1 0
BITMAP
0180
0180
0380
0300
0300
0300
0300
0300
0600
0600
0600
6600
C600
CE00
CC00
FC00
FC00
ENDCHAR
STARTCHAR K
ENCODING 75
SWIDTH 317 0
DWIDTH 8 0
BBX 10 17 1 0
BITMAP
19C0
1980
1B80
3300
3700
3600
3C00
3C00
3800
6800
6C00
6C00
6C00
6C00
EC00
CE00
C600
ENDCHAR
STARTCHAR L
ENCODING 76
SWIDTH 248 0
DWIDTH 6 0
BBX 5 17 1 0
BITMAP
18
18
18
30
30
30
30
30
70
60
60
60
60
60
C0
F8
F8
ENDCHAR
STARTCHAR M
ENCODING 77
SWIDTH 439 0
DWIDTH 11 0
BBX 12 17 1 0
BITMAP
1870
1870
38F0
38E0
38E0
39E0
39E0
6960
6BC0
6BC0
6AC0
6EC0
6EC0
CCC0
CD80
CD80
C980
ENDCHAR
STARTCHAR N
ENCODING 78
SWIDTH 341 0
DWIDTH 8 0
BBX 10 17 1 0
BITMAP
18C0
18C0
1980
1980
3D80
3D80
3D80
3D80
3F00
6F00
6F00
6F00
6F00
6600
6600
C600
C600
ENDCHAR
STARTCHAR O
ENCODING 79
SWIDTH 314 0
DWIDTH 8 0
BBX 9 17 1 0
BITMAP
1F80
1F80
3180
3180
3100
3300
3300
6300
6300
6300
6600
6600
C600
C600
C600
FC00
FC00
ENDCHAR
STARTCHAR P
ENCODING 80
SWIDTH 316 0
DWIDTH 8 0
BBX 9 17 1 0
BITMAP
1F80
1F80
1980
3980
3180
3300
3300
3300
3F00
7E00
6000
6000
6000
6000
E000
C000
C000
ENDCHAR
STARTCHAR Q
ENCODING 81
SWIDTH 314 0
DWIDTH 8 0
BBX 9 19 1 -2
BITMAP
1F80
1F80
3180
3180
3100
3300
3300
6300
6300
6300
6600
6600
C600
C600
C600
FC00
FC00
3000
1800
ENDCHAR
STARTCHAR R
ENCODING 82
SWIDTH 321 0
DWIDTH 8 0
BBX 9 17 1 0
BITMAP
1F80
1F80
1180
3380
3380
3300
3300
3300
7F00
7E00
6600
6600
6600
4C00
CC00
CC00
CC00
ENDCHAR
STARTCHAR S
ENCODING 83
SWIDTH 312 0
DWIDTH 8 0
BBX 9 17 1 0
BITMAP
1F80
1F80
3180
3180
3180
3300
3800
1800
1C00
0C00
0600
6600
C600
C600
CE00
FC00
FC00
ENDCHAR
STARTCHAR T
ENCODING 84
SWIDTH 230 0
DWIDTH 6 0
BBX 7 17 2 0
BITMAP
3E
7E
18
18
38
30
30
30
30
70
60
60
60
60
E0
E0
C0
ENDCHAR
STARTCHAR U
ENCODING 85
SWIDTH 314 0
DWIDTH 8 0
BBX 9 17 1 0
BITMAP
1980
3180
3380
3300
3300
3300
6300
6300
6600
6600
6600
6600
C600
CE00
CC00
FC00
FC00
ENDCHAR
STARTCHAR V
ENCODING 86
SWIDTH 317 0
DWIDTH 8 0
BBX 8 17 3 0
BITMAP
63
67
66
46
CC
CC
CC
D8
D8
D8
D0
F0
F0
E0
E0
E0
C0
ENDCHAR
STARTCHAR W
ENCODING 87
SWIDTH 512 0
DWIDTH 12 0
BBX 12 17 3 0
BITMAP
C630
C630
C660
CE60
CE60
CEC0
DEC0
DEC0
DF80
F780
F780
F780
E700
E700
E700
C600
C600
ENDCHAR
STARTCHAR X
ENCODING 88
SWIDTH 317 0
DWIDTH 8 0
BBX 10 17 0 0
BITMAP
18C0
1980
1D80
0F00
0F00
0E00
0E00
0E00
0C00
1C00
1C00
1C00
3C00
3E00
6600
6600
C600
ENDCHAR
STARTCHAR Y
ENCODING 89
SWIDTH 317 0
DWIDTH 8 0
BBX 8 17 3 0
BITMAP
63
66
66
6C
6C
6C
78
78
70
70
60
60
60
60
E0
C0
C0
ENDCHAR
STARTCHAR Z
ENCODING 90
SWIDTH 292 0
DWIDTH 7 0
BBX 9 17 1 0
BITMAP
1F80
1F80
0300
0300
0600
0600
0E00
0C00
1C00
1800
3800
3000
3000
6000
6000
FC00
FC00
ENDCHAR
STARTCHAR A.dup1
ENCODING 97
SWIDTH 317 0
DWIDTH 8 0
BBX 8 17 0 0
BITMAP
03
07
07
07
0F
0F
0B
1B
1B
1B
33
33
3F
7F
63
67
C6
ENDCHAR
STARTCHAR B.dup2
ENCODING 98
SWIDTH 317 0
DWIDTH 8 0
BBX 9 17 1 0
BITMAP
1F80
1F80
1980
3980
3180
3300
3300
3300
3F00
7F00
7300
7300
6300
6600
E600
FE00
FC00
ENDCHAR
STARTCHAR C.dup3
ENCODING 99
SWIDTH 314 0
DWIDTH 8 0
BBX 9 17 1 0
BITMAP
1F80
1F80
3180
3180
3180
3300
3000
6000
6000
6000
6000
6600
C600
CC00
CC00
FC00
F800
ENDCHAR
STARTCHAR D.dup4
ENCODING 100
SWIDTH 335 0
DWIDTH 8 0
BBX 9 17 1 0
BITMAP
1F80
1F80
3980
3180
3180
3300
3300
3300
7300
6300
6200
6600
6600
6600
C600
FE00
FC00
ENDCHAR
STARTCHAR E.dup5
ENCODING 101
SWIDTH 248 0
DWIDTH 6 0
BBX 8 17 1 0
BITMAP
1F
1F
18
18
38
30
30
3E
3C
70
60
60
60
60
E0
F8
F8
ENDCHAR
STARTCHAR F.dup6
ENCODING 102
SWIDTH 248 0
DWIDTH 6 0
BBX 8 17 1 0
BITMAP
1F
1F
18
18
38
30
30
3E
3C
70
60
60
60
60
E0
C0
C0
ENDCHAR
STARTCHAR G.dup7
ENCODING 103
SWIDTH 314 0
DWIDTH 8 0
BBX 9 17 1 0
BITMAP
1F80
1F80
3180
3180
3180
3300
3000
6F00
6E00
6600
6600
6600
C600
CC00
CC00
FC00
F800
ENDCHAR
STARTCHAR H.dup8
ENCODING 104
SWIDTH 317 0
DWIDTH 8 0
BBX 9 17 1 0
BITMAP
1980
1980
1180
3300
3300
3300
3300
3F00
7F00
6600
6600
6600
6600
6600
CC00
CC00
CC00
ENDCHAR
STARTCHAR I.dup9
ENCODING 105
SWIDTH 143 0
DWIDTH 3 0
BBX 5 17 1 0
BITMAP
18
18
18
30
30
30
30
30
70
60
60
60
60
60
C0
C0
C0
ENDCHAR
STARTCHAR J.dup10
ENCODING 106
SWIDTH 314 0
DWIDTH 8 0
BBX 9 17 1 0
BITMAP
0180
0180
0380
0300
0300
0300
0300
0300
0600
0600
0600
6600
C600
CE00
CC00
FC00
FC00
ENDCHAR
STARTCHAR K.dup11
ENCODING 107
SWIDTH 317 0
DWIDTH 8 0
BBX 10 17 1 0
BITMAP
19C0
1980
1B80
3300
3700
3600
3C00
3C00
3800
6800
6C00
6C00
6C00
6C00
EC00
CE00
C600
ENDCHAR
STARTCHAR L.dup12
ENCODING 108
SWIDTH 248 0
DWIDTH 6 0
BBX 5 17 1 0
BITMAP
18
18
18
30
30
30
30
30
70
60
60
60
60
60
C0
F8
F8
ENDCHAR
STARTCHAR M.dup13
ENCODING 109
SWIDTH 439 0
DWIDTH 11 0
BBX 12 17 1 0
BITMAP
1870
1870
38F0
38E0
38E0
39E0
39E0
6960
6BC0
6BC0
6AC0
6EC0
6EC0
CCC0
CD80
CD80
C980
ENDCHAR
STARTCHAR N.dup14
ENCODING 110
SWIDTH 341 0
DWIDTH 8 0
BBX 10 17 1 0
BITMAP
18C0
18C0
1980
1980
3D80
3D80
3D80
3D80
3F00
6F00
6F00
6F00
6F00
6600
6600
C600
C600
ENDCHAR
STARTCHAR O.dup15
ENCODING 111
SWIDTH 314 0
DWIDTH 8 0
BBX 9 17 1 0
BITMAP
1F80
1F80
3180
3180
3100
3300
3300
6300
6300
6300
6600
6600
C600
C600
C600
FC00
FC00
ENDCHAR
STARTCHAR P.dup16
ENCODING 112
SWIDTH 316 0
DWIDTH 8 0
BBX 9 17 1 0
BITMAP
1F80
1F80
1980
3980
3180
3300
3300
3300
3F00
7E00
6000
6000
6000
6000
E000
C000
C000
ENDCHAR
STARTCHAR Q.dup17
ENCODING 113
SWIDTH 314 0
DWIDTH 8 0
BBX 9 19 1 -2
BITMAP
1F80
1F80
3180
3180
3100
3300
3300
6300
6300
6300
6600
6600
C600
C600
C600
FC00
FC00
3000
1800
ENDCHAR
STARTCHAR R.dup18
ENCODING 114
SWIDTH 321 0
DWIDTH 8 0
BBX 9 17 1 0
BITMAP
1F80
1F80
1180
3380
3380
3300
3300
3300
7F00
7E00
6600
6600
6600
4C00
CC00
CC00
CC00
ENDCHAR
STARTCHAR S.dup19
ENCODING 115
SWIDTH 312 0
DWIDTH 8 0
BBX 9 17 1 0
BITMAP
1F80
1F80
3180
3180
3180
3300
3800
1800
1C00
0C00
0600
6600
C600
C600
CE00
FC00
FC00
ENDCHAR
STARTCHAR T.dup20
ENCODING 116
SWIDTH 230 0
DWIDTH 6 0
BBX 7 17 2 0
BITMAP
3E
7E
18
18
38
30
30
30
30
70
60
60
60
60
E0
E0
C0
ENDCHAR
STARTCHAR U.dup21
ENCODING 117
SWIDTH 314 0
DWIDTH 8 0
BBX 9 17 1 0
BITMAP
1980
3180
3380
3300
3300
3300
6300
6300
6600
6600
6600
6600
C600
CE00
CC00
FC00
FC00
ENDCHAR
STARTCHAR V.dup22
ENCODING 118
SWIDTH 317 0
DWIDTH 8 0
BBX 8 17 3 0
BITMAP
63
67
66
46
CC
CC
CC
D8
D8
D8
D0
F0
F0
E0
E0
E0
C0
ENDCHAR
STARTCHAR W.dup23
ENCODING 119
SWIDTH 512 0
DWIDTH 12 0
BBX 12 17 3 0
BITMAP
C630
C630
C660
CE60
CE60
CEC0
DEC0
DEC0
DF80
F780
F780
F780
E700
E700
E700
C600
C600
ENDCHAR
STARTCHAR X.dup24
ENCODING 120
SWIDTH 317 0
DWIDTH 8 0
BBX 10 17 0 0
BITMAP
18C0
1980
1D80
0F00
0F00
0E00
0E00
0E00
0C00
1C00
1C00
1C00
3C00
3E00
6600
6600
C600
ENDCHAR
STARTCHAR Y.dup25
ENCODING 121
SWIDTH 317 0
DWIDTH 8 0
BBX 8 17 3 0
BITMAP
63
66
66
6C
6C
6C
78
78
70
70
60
60
60
60
E0
C0
C0
ENDCHAR
STARTCHAR Z.dup26
ENCODING 122
SWIDTH 292 0
DWIDTH 7 0
BBX 9 17 1 0
BITMAP
1F80
1F80
0300
0300
0600
0600
0E00
0C00
1C00
1800
3800
3000
3000
6000
6000
FC00
FC00
ENDCHAR
STARTCHAR space.dup27
ENCODING 160
SWIDTH 146 0
DWIDTH 4 0
BBX 1 1 0 0
BITMAP
00
ENDCHAR
STARTCHAR .notdef
ENCODING -1
SWIDTH 781 0
DWIDTH 19 0
BBX 16 17 1 0
BITMAP
0001
000F
007F
01FF
0FFF
3FFF
FFFF
FFFF
F673
EFAD
C7AD
DB71
DAFB
E737
FFFF
FFFF
FFFF
ENDCHAR
STARTCHAR .null
ENCODING -1
SWIDTH 0 0
DWIDTH 0 0
BBX 1 1 0 0
BITMAP
00
ENDCHAR
STARTCHAR uni000D
ENCODING -1
SWIDTH 248 0
DWIDTH 6 0
BBX 1 1 0 0
BITMAP
00
ENDCHAR
ENDFONT
